<svg width="96" height="96" viewBox="0 0 96 96" fill="none" xmlns="http://www.w3.org/2000/svg">
<circle cx="48" cy="48" r="48" fill="#F9FAFB"/>
<path d="M64.9209 45.4101V50.9353C64.9209 51.2806 64.5755 51.4532 64.4029 51.4532H51.9712V68.2014C51.9712 68.5468 51.6259 68.7194 51.4532 68.7194H44.7194C44.3741 68.7194 44.2014 68.3741 44.2014 68.2014V51.4532H31.7698C31.4245 51.4532 31.2518 51.1079 31.2518 50.9353V45.4101C31.2518 45.0647 31.5971 44.8921 31.7698 44.8921H64.5755C64.7482 44.8921 64.9209 45.0647 64.9209 45.4101ZM48 36.9496C50.7626 36.9496 53.0072 34.705 53.0072 31.9424C53.0072 29.1799 50.7626 26.9353 48 26.9353C45.2374 26.9353 42.9928 29.1799 42.9928 31.9424C42.8201 34.705 45.2374 36.9496 48 36.9496ZM96 48C96 74.4173 74.5899 96 48 96C21.4101 96 0 74.4173 0 48C0 21.5827 21.4101 0 48 0C74.5899 0 96 21.4101 96 48ZM89.6115 48C89.6115 36.9496 85.295 26.4173 77.3525 18.6475C69.4101 10.705 59.0504 6.38849 48 6.38849C36.9496 6.38849 26.4173 10.705 18.6475 18.6475C10.705 26.5899 6.38849 36.9496 6.38849 48C6.38849 59.0504 10.705 69.5827 18.6475 77.3525C26.5899 85.295 36.9496 89.6115 48 89.6115C59.0504 89.6115 69.5827 85.295 77.3525 77.3525C85.295 69.5827 89.6115 59.0504 89.6115 48Z" fill="black"/>
</svg>
