<svg width="96" height="96" viewBox="0 0 96 96" fill="none" xmlns="http://www.w3.org/2000/svg">
<g clip-path="url(#clip0)">
<circle cx="48" cy="48.5" r="48" fill="white"/>
<path d="M48 96C74.5097 96 96 74.5097 96 48C96 21.4903 74.5097 0 48 0C21.4903 0 0 21.4903 0 48C0 74.5097 21.4903 96 48 96Z" fill="url(#paint0_linear)"/>
<path fill-rule="evenodd" clip-rule="evenodd" d="M42 32.0571V42.5143C42 43.2038 42.6415 43.7143 43.2 43.7143H59.6571C60.2157 43.7143 60.8571 44.2316 60.8571 44.9143V49.3714C60.8571 49.93 60.3398 50.5714 59.6571 50.5714H43.2C42.6415 50.5714 42 51.206 42 51.7714V76.1143C41.9946 77.0358 41.4898 77.53 40.8 77.1428L36 73.7143C35.4344 73.3711 35.1429 73.0255 35.1429 72.3428V51.7714C35.1429 51.206 34.4945 50.5714 33.9429 50.5714H26.0571C25.3666 50.5714 24.8571 49.9299 24.8571 49.3714V44.9143C24.8571 44.2455 25.3666 43.7143 26.0571 43.7143H33.9429C34.4945 43.7143 35.1429 43.2038 35.1429 42.5143V25.2C35.1429 24.5174 35.6986 24 36.2571 24H66.5143C67.0728 24 67.7143 24.6415 67.7143 25.2V29.6571C67.7143 30.2157 67.1969 30.8571 66.5143 30.8571H43.2C42.6415 30.8571 42 31.4986 42 32.0571Z" fill="white"/>
</g>
<defs>
<linearGradient id="paint0_linear" x1="0" y1="0" x2="96" y2="96" gradientUnits="userSpaceOnUse">
<stop stop-color="#AA00FF"/>
<stop offset="1" stop-color="#5500FF"/>
</linearGradient>
<clipPath id="clip0">
<rect width="96" height="96" fill="white"/>
</clipPath>
</defs>
</svg>
