<svg width="97" height="97" viewBox="0 0 97 97" fill="none" xmlns="http://www.w3.org/2000/svg">
<g clip-path="url(#clip0)">
<g filter="url(#filter0_d)">
<circle cx="49.2128" cy="48.7152" r="47.5074" fill="white"/>
</g>
<path d="M48.7202 96.5C22.3202 96.5 0.720215 74.9 0.720215 48.5C0.720215 22.1 22.3202 0.5 48.7202 0.5C75.1202 0.5 96.7202 22.1 96.7202 48.5C96.7202 74.9 75.1202 96.5 48.7202 96.5Z" fill="#002868"/>
<path d="M72.6636 77.004H24.7768C22.2685 77.004 20.2162 74.9517 20.2162 72.4434V24.5566C20.2162 22.0483 22.2685 19.996 24.7768 19.996H72.6636C75.172 19.996 77.2243 22.0483 77.2243 24.5566V72.4434C77.2243 74.9517 75.172 77.004 72.6636 77.004Z" fill="white"/>
<path d="M31.3407 71.2637C31.1905 71.2637 31.0689 71.1269 31.0689 70.9768V63.3168C31.0689 63.1667 30.9473 63.0299 30.7972 63.0299H28.0931C27.9411 63.0299 27.8062 62.9082 27.8062 62.7581V61.2778C27.8062 61.1277 27.943 60.9909 28.0931 60.9909H36.4163C36.5664 60.9909 36.7032 61.1258 36.7032 61.2778V62.7581C36.7032 62.9082 36.5664 63.0299 36.4163 63.0299H33.7274C33.5773 63.0299 33.4404 63.1648 33.4404 63.3168V70.9768C33.4404 71.1269 33.3188 71.2637 33.1687 71.2637H31.3407Z" fill="#002868"/>
<path d="M45.0112 61.2778C45.0112 61.1277 45.1328 60.9909 45.2829 60.9909H47.0958C47.2459 60.9909 47.3827 61.1258 47.3827 61.2778V66.5055C47.3827 69.6029 45.6306 71.4005 42.8506 71.4005C40.0857 71.4005 38.3488 69.6029 38.3488 66.5055V61.2778C38.3488 61.1277 38.4704 60.9909 38.6206 60.9909H40.4334C40.5835 60.9909 40.7204 61.1258 40.7204 61.2778V66.5796C40.7204 68.1055 41.5052 69.1924 42.8658 69.1924C44.2263 69.1924 45.0112 68.1055 45.0112 66.5796V61.2778V61.2778Z" fill="#002868"/>
<path d="M55.7078 64.3449C55.4665 64.3449 55.3904 64.2537 55.2992 64.0732C54.9819 63.3321 54.2864 62.8646 53.2298 62.8646C52.2778 62.8646 51.4778 63.1972 51.4778 63.8319C51.4778 64.5274 52.2189 64.8143 53.8493 65.01C56.3273 65.297 57.7468 66.0533 57.7468 68.0163C57.7468 70.2225 55.8123 71.3854 53.3363 71.3854C51.1909 71.3854 49.3476 70.3422 49.0607 68.1531C49.0303 67.9421 49.1367 67.8661 49.3476 67.8661H51.0103C51.2213 67.8661 51.3429 67.9573 51.4037 68.1227C51.6298 68.8486 52.4013 69.4073 53.5187 69.4073C54.5011 69.4073 55.3619 69.0443 55.3619 68.2747C55.3619 67.3531 54.4555 67.1877 52.6427 66.9597C50.5581 66.688 49.1082 66.0837 49.1082 64.1644C49.1082 62.2451 50.7557 60.8712 53.3382 60.8712C55.6641 60.8712 57.2812 62.1254 57.6138 63.9991C57.6594 64.21 57.5986 64.3468 57.3724 64.3468H55.7078V64.3449Z" fill="#002868"/>
<path d="M59.8008 71.2637C59.6507 71.2637 59.5291 71.1269 59.5291 70.9768V61.2778C59.5291 61.1277 59.6507 60.9909 59.8008 60.9909H63.9092C66.961 60.9909 69.3325 63.0907 69.3325 66.1577C69.3325 69.1791 66.9914 71.2637 63.9092 71.2637H59.8008ZM63.9092 69.2228C65.5567 69.2228 66.8394 67.9231 66.8394 66.1254C66.8394 64.3278 65.5548 63.028 63.894 63.028H62.1875C62.0374 63.028 61.9158 63.1629 61.9158 63.3149V68.9492C61.9158 69.0993 62.0374 69.2209 62.1875 69.2209H63.9092V69.2228Z" fill="#002868"/>
<path d="M75.7042 55.3397H21.7366C21.3185 55.3397 20.9765 54.9977 20.9765 54.5796V24.5554C20.9765 22.4651 22.6867 20.7549 24.777 20.7549H72.6638C74.7541 20.7549 76.4644 22.4651 76.4644 24.5554V54.5796C76.4644 54.9977 76.1223 55.3397 75.7042 55.3397Z" fill="#002868"/>
<path d="M51.5194 49.1756H46.5787C46.2651 49.1756 46.0086 48.9191 46.0086 48.6055V27.7026C46.0086 27.389 46.2651 27.1325 46.5787 27.1325H51.5194C51.8329 27.1325 52.0895 27.389 52.0895 27.7026V48.6055C52.0895 48.9191 51.8329 49.1756 51.5194 49.1756Z" fill="white"/>
<path d="M59.9321 33.2134H37.5089C37.1954 33.2134 36.9388 32.9568 36.9388 32.6433V27.7026C36.9388 27.389 37.1954 27.1325 37.5089 27.1325H59.9321C60.2456 27.1325 60.5022 27.389 60.5022 27.7026V32.6433C60.5022 32.9568 60.2456 33.2134 59.9321 33.2134Z" fill="white"/>
</g>
<defs>
<filter id="filter0_d" x="-1.72886" y="-0.509391" width="101.883" height="101.883" filterUnits="userSpaceOnUse" color-interpolation-filters="sRGB">
<feFlood flood-opacity="0" result="BackgroundImageFix"/>
<feColorMatrix in="SourceAlpha" type="matrix" values="0 0 0 0 0 0 0 0 0 0 0 0 0 0 0 0 0 0 127 0"/>
<feOffset dy="1.71715"/>
<feGaussianBlur stdDeviation="1.71715"/>
<feColorMatrix type="matrix" values="0 0 0 0 0 0 0 0 0 0 0 0 0 0 0 0 0 0 0.1 0"/>
<feBlend mode="normal" in2="BackgroundImageFix" result="effect1_dropShadow"/>
<feBlend mode="normal" in="SourceGraphic" in2="effect1_dropShadow" result="shape"/>
</filter>
<clipPath id="clip0">
<rect width="96" height="96" fill="white" transform="translate(0.720215 0.5)"/>
</clipPath>
</defs>
</svg>
