<svg xmlns="http://www.w3.org/2000/svg" xmlns:xlink="http://www.w3.org/1999/xlink" viewBox="0 0 252.37 252.37"><defs><style>.cls-1{fill:none;}.cls-2{clip-path:url(#clip-path);}.cls-3{fill:#f9fbfc;}.cls-4{fill:url(#linear-gradient);}.cls-5{fill:#fff;}.cls-6{fill:url(#linear-gradient-2);}.cls-7{fill:url(#linear-gradient-3);}</style><clipPath id="clip-path" transform="translate(-1.82 -1.82)"><rect class="cls-1" width="256" height="256"/></clipPath><linearGradient id="linear-gradient" x1="92.43" y1="1395.94" x2="132" y2="1176.58" gradientTransform="matrix(1, 0, 0, -1, 0, 1411.63)" gradientUnits="userSpaceOnUse"><stop offset="0" stop-color="#52bf9b"/><stop offset="1" stop-color="#8985c0"/></linearGradient><linearGradient id="linear-gradient-2" x1="131.2" y1="98.25" x2="131.37" y2="212.34" gradientUnits="userSpaceOnUse"><stop offset="0" stop-color="#293a47"/><stop offset="1" stop-color="#667786"/></linearGradient><linearGradient id="linear-gradient-3" x1="131.5" y1="78.35" x2="131.07" y2="113.19" xlink:href="#linear-gradient-2"/></defs><g id="Layer_2" data-name="Layer 2"><g id="Layer_1-2" data-name="Layer 1"><g class="cls-2"><circle class="cls-3" cx="126.18" cy="126.18" r="126.18"/><path class="cls-4" d="M208.1,225.49A126.17,126.17,0,1,1,208,30.42L182.54,61.47a86,86,0,1,0,.07,133Z" transform="translate(-1.82 -1.82)"/><path class="cls-5" d="M128,232A104,104,0,1,0,24,128,104,104,0,0,0,128,232Z" transform="translate(-1.82 -1.82)"/></g><path class="cls-6" d="M131.3,173.06H82.61a8.34,8.34,0,0,1-7-12.84L103.29,117a11.11,11.11,0,0,1,9.36-5.12H150a11.12,11.12,0,0,1,9.36,5.12L187,160.22a8.34,8.34,0,0,1-7,12.84Z" transform="translate(-1.82 -1.82)"/><path class="cls-7" d="M136.17,73.67,147.8,91.45a5.56,5.56,0,0,1-4.65,8.61h-23.7a5.56,5.56,0,0,1-4.6-8.69L126.92,73.6A5.55,5.55,0,0,1,136.17,73.67Z" transform="translate(-1.82 -1.82)"/></g></g></svg>