<svg width="16" height="14" viewBox="0 0 16 14" fill="none" xmlns="http://www.w3.org/2000/svg">
<path d="M14.7189 1.21482e-09H4.88879C4.83356 -4.19655e-06 4.77888 0.0108706 4.72785 0.0320032C4.67683 0.0531359 4.63047 0.0841127 4.59141 0.123164C4.55236 0.162216 4.52139 0.208578 4.50025 0.259602C4.47912 0.310626 4.46825 0.365314 4.46825 0.420541V3.33943H0.420541C0.365314 3.33943 0.310626 3.3503 0.259602 3.37144C0.208578 3.39257 0.162216 3.42355 0.123164 3.4626C0.0841126 3.50165 0.0531359 3.54801 0.0320032 3.59904C0.0108706 3.65006 -4.19655e-06 3.70475 1.21482e-09 3.75997V13.5799C-4.19655e-06 13.6352 0.0108706 13.6899 0.0320032 13.7409C0.0531359 13.7919 0.0841126 13.8383 0.123164 13.8773C0.162216 13.9164 0.208578 13.9474 0.259602 13.9685C0.310626 13.9896 0.365314 14.0005 0.420541 14.0005H10.2507C10.3059 14.0005 10.3606 13.9896 10.4116 13.9685C10.4627 13.9474 10.509 13.9164 10.5481 13.8773C10.5871 13.8383 10.6181 13.7919 10.6392 13.7409C10.6604 13.6899 10.6712 13.6352 10.6712 13.5799V10.661H14.7189C14.7742 10.6611 14.8289 10.6502 14.8799 10.629C14.9309 10.6079 14.9773 10.5769 15.0163 10.5379C15.0554 10.4988 15.0863 10.4525 15.1075 10.4014C15.1286 10.3504 15.1395 10.2957 15.1395 10.2405V0.420541C15.1395 0.365314 15.1286 0.310626 15.1075 0.259602C15.0863 0.208578 15.0554 0.162216 15.0163 0.123164C14.9773 0.0841127 14.9309 0.0531359 14.8799 0.0320032C14.8289 0.0108706 14.7742 -4.19655e-06 14.7189 1.21482e-09V1.21482e-09ZM9.83015 13.1594H0.841082V4.18052H9.83015V13.1594ZM14.2984 9.81996H10.6712V3.75998C10.6712 3.70476 10.6604 3.65007 10.6392 3.59904C10.6181 3.54802 10.5871 3.50166 10.5481 3.46261C10.509 3.42355 10.4627 3.39258 10.4116 3.37144C10.3606 3.35031 10.3059 3.33944 10.2507 3.33944H5.30933V0.841082H14.2984V9.81996Z" fill="#045385"/>
</svg>
